<svg xmlns="http://www.w3.org/2000/svg" xmlns:xlink="http://www.w3.org/1999/xlink" width="411.508" height="313.865" viewBox="0 0 411.508 313.865">
  <defs>
    <filter id="dilkhush-raj" x="151.478" y="256.135" width="169" height="40" filterUnits="userSpaceOnUse">
      <feOffset dy="3" input="SourceAlpha"/>
      <feGaussianBlur stdDeviation="3" result="blur"/>
      <feFlood flood-opacity="0.329"/>
      <feComposite operator="in" in2="blur"/>
      <feComposite in="SourceGraphic"/>
    </filter>
  </defs>
  <g id="coding-in-forest" transform="translate(25.478 -103.865)">
    <g id="freepik--Tree--inject-2" transform="translate(-293 0.22)">
      <path id="elh56fm9s26vn" d="M372.25,400s-3.25-.17-3.57-9,5.4-11.26,9.8-10.17c0,0-.64-6.33,2.21-6.09s2.66,4.45,2.66,4.45,1-9,4.87-9,0,10.61,0,10.61,5.39-2.59,7.37,0-2.47,5.62-2.47,5.62,7,2.28,4.06,9.52c0,0,4.87.76,6.23,4,0,0-.39-6.55,1.37-6.11s1.36,6.18,1.36,6.18,2.92-6.3,5.45-4.08-1.16,7.57-1.16,7.57,4.87-2.36,5.64.77-2.72,4.3-2.72,4.3,5.06-1.17,5.06,4.64c0,0,9.74-.93,12.08,4.29h-58Z" fill="#006b2c"/>
      <g id="elhn2opy3arpe">
        <path id="elhe2b8tjcmzv" d="M372.25,400s-3.25-.17-3.57-9,5.4-11.26,9.8-10.17c0,0-.64-6.33,2.21-6.09s2.66,4.45,2.66,4.45,1-9,4.87-9,0,10.61,0,10.61,5.39-2.59,7.37,0-2.47,5.62-2.47,5.62,7,2.28,4.06,9.52c0,0,4.87.76,6.23,4,0,0-.39-6.55,1.37-6.11s1.36,6.18,1.36,6.18,2.92-6.3,5.45-4.08-1.16,7.57-1.16,7.57,4.87-2.36,5.64.77-2.72,4.3-2.72,4.3,5.06-1.17,5.06,4.64c0,0,9.74-.93,12.08,4.29h-58Z" fill="#fff" opacity="0.4"/>
      </g>
      <path id="elq1x0j0r2kg" d="M342.61,309c-1.4,23-9,108-9,108l54.91.51L373.08,263.92l24.64-7.52,5.17-14.93L423.7,229.7l10.17-15.62-3.93-1L418.71,227.5l-13.1,2.85,5.61-13.29H405l-15.6,30.78-16,3.28-1.46-56c-16.08,7.51-21.22-5-21.22-5s-4.16,87.66-6.5,94.28h0a34.4,34.4,0,0,1-6.57-4.75,76.8,76.8,0,0,1-14-16.56l-1-1.65h-5Z" fill="#3f2613"/>
      <g id="eldawajdj422f">
        <g id="el6ubel20owi8" opacity="0.2">
          <path id="el852jd2kmdif" d="M342.61,309c-1.4,23-9,108-9,108l54.91.51L373.08,263.92l24.64-7.52,5.17-14.93L423.7,229.7l10.17-15.62-3.93-1L418.71,227.5l-13.1,2.85,5.61-13.29H405l-15.6,30.78-16,3.28-1.46-56c-16.08,7.51-21.22-5-21.22-5s-4.16,87.66-6.5,94.28h0a34.4,34.4,0,0,1-6.57-4.75,76.8,76.8,0,0,1-14-16.56l-1-1.65h-5Z"/>
        </g>
      </g>
      <g id="elthakv6njms">
        <path id="el5k0jnhubvpe" d="M400.49,237.32l-6.69,12.9-20.93,5.3s.07-3.29.41-7.51l.09,3.16,16-3.28L405,217.11h6.24l-5.61,13.29,13.1-2.85,11.23-14.42.55.13-8.65,13.09Z" opacity="0.1"/>
      </g>
      <path id="eleqifrjl8wpf" d="M370.36,341.56l4.94,75.83-8.71-.08V357.46Z" fill="#3f2613"/>
      <path id="elfl1pv8uze06" d="M342.61,309l-25-47.51h5l1,1.65a76.8,76.8,0,0,0,14,16.56,34.4,34.4,0,0,0,6.57,4.75c2.34-6.62,6.5-94.28,6.5-94.28a12.92,12.92,0,0,0,8.44,7q.35,42.47.71,84.94c1.77-4,3.31-7.89,3.46-12.08.53,11.6,1.24,24.07,1.19,35.52l-9.62,35.49L353,417.18,333.64,417S341.21,332,342.61,309Z" fill="#3f2613"/>
      <path id="elorxyirhf0v" d="M280.81,160.66c-8,2.86-13.53,11.33-13.28,19.84a22.8,22.8,0,0,0,13.87,19.76,25.17,25.17,0,0,0,24.19-3.19c.35,8.17,5.93,17.05,13.72,19.52a20.59,20.59,0,0,0,22-6.88c21,13.19,94.5,18.08,107.42-38.09,2.66-11.6-3.8-23.88-13.27-31.09s-21.51-10.16-33.32-11.61c-11.21-17.85-36.07-27.6-57-24.8s-39.46,18.61-45.57,38.78C278.28,143,280.5,162.09,280.81,160.66Z" fill="#006b2c"/>
      <g id="eltou95y3qbbl">
        <g id="el3z13vptzh3u" opacity="0.2">
          <path id="ele6kt4rr7cd" d="M280.81,160.66c-8,2.86-13.53,11.33-13.28,19.84a22.8,22.8,0,0,0,13.87,19.76,25.17,25.17,0,0,0,24.19-3.19c.35,8.17,5.93,17.05,13.72,19.52a20.59,20.59,0,0,0,22-6.88c21,13.19,94.5,18.08,107.42-38.09,2.66-11.6-3.8-23.88-13.27-31.09s-21.51-10.16-33.32-11.61c-11.21-17.85-36.07-27.6-57-24.8s-39.46,18.61-45.57,38.78C278.28,143,280.5,162.09,280.81,160.66Z"/>
        </g>
      </g>
      <path id="el785ozfhdv9o" d="M306.74,271.15A11.24,11.24,0,0,0,326.85,268c5,3.5,12.66,2.64,17.7-.77a15.11,15.11,0,0,0-6.55-27.5A18,18,0,0,0,329.57,226a19.61,19.61,0,0,0-16.78-1.77A20.55,20.55,0,0,0,294.93,230c-3.37,3.27-5.61,7.91-5.22,12.59s3.81,9.17,8.42,10.06a13.79,13.79,0,0,0-.48,10.95C299.14,267.08,303.16,269.82,306.74,271.15Z" fill="#006b2c"/>
      <g id="elj5sxvppuwp">
        <path id="elc81hpffi3y" d="M306.74,271.15A11.24,11.24,0,0,0,326.85,268c5,3.5,12.66,2.64,17.7-.77a15.11,15.11,0,0,0-6.55-27.5A18,18,0,0,0,329.57,226a19.61,19.61,0,0,0-16.78-1.77A20.55,20.55,0,0,0,294.93,230c-3.37,3.27-5.61,7.91-5.22,12.59s3.81,9.17,8.42,10.06a13.79,13.79,0,0,0-.48,10.95C299.14,267.08,303.16,269.82,306.74,271.15Z" opacity="0.2"/>
      </g>
      <path id="elox07dwz52k" d="M412.56,186.23a11.24,11.24,0,0,0-14.18,14.6c-6.08.19-11.71,5.5-13.69,11.25a15.1,15.1,0,0,0,21.71,18.07,18,18,0,0,0,15,5.9,19.65,19.65,0,0,0,14.49-8.66,20.56,20.56,0,0,0,10.84-15.31c.73-4.63-.26-9.69-3.39-13.2s-8.55-5-12.77-3a13.79,13.79,0,0,0-6.19-9C421.09,184.93,416.22,185.15,412.56,186.23Z" fill="#058138"/>
      <g id="elo7lpkadc8vf">
        <path id="elevyvo2jsnno" d="M412.56,186.23a11.24,11.24,0,0,0-14.18,14.6c-6.08.19-11.71,5.5-13.69,11.25a15.1,15.1,0,0,0,21.71,18.07,18,18,0,0,0,15,5.9,19.65,19.65,0,0,0,14.49-8.66,20.56,20.56,0,0,0,10.84-15.31c.73-4.63-.26-9.69-3.39-13.2s-8.55-5-12.77-3a13.79,13.79,0,0,0-6.19-9C421.09,184.93,416.22,185.15,412.56,186.23Z" opacity="0.1"/>
      </g>
      <path id="elltoydhvb6b" d="M375.45,415.29S355.28,402.22,359.11,400s17.27,10.85,17.27,10.85-14.86-21.74-11.19-26.1,13.56,17.72,13.56,17.72-6.72-25.24-2-28,6.47,25.29,6.47,25.29,1.85-30.4,10.55-30-4,30-4,30,12.27-17.59,16.62-12.6-13.85,19-13.85,19,13.61-6.39,14.52-1.65-15,9.79-15,9.79,5.11,1.47,6.3,3.19H371.18S370.74,416.2,375.45,415.29Z" fill="#006b2c"/>
      <g id="ellnvqws9ral">
        <path id="el0g7ny1qgu82n" d="M375.45,415.29S355.28,402.22,359.11,400s17.27,10.85,17.27,10.85-14.86-21.74-11.19-26.1,13.56,17.72,13.56,17.72-6.72-25.24-2-28,6.47,25.29,6.47,25.29,1.85-30.4,10.55-30-4,30-4,30,12.27-17.59,16.62-12.6-13.85,19-13.85,19,13.61-6.39,14.52-1.65-15,9.79-15,9.79,5.11,1.47,6.3,3.19H371.18S370.74,416.2,375.45,415.29Z" fill="#fff" opacity="0.6"/>
      </g>
    </g>
    <g id="freepik--Stone--inject-2">
      <path id="elhv6w9pvoelc" d="M114.67,364.63c-.07-.36-6.83-35.43-13.43-40.1-6.41-4.52-12,1.69-12.2,2l-.75-.65c.06-.08,6.39-7.15,13.52-2.11,6.94,4.89,13.56,39.26,13.84,40.72Z" fill="#006b2c"/>
      <path id="elmjrznhj4rpr" d="M112.16,367.52c0-.24-2.5-24.35-10.27-31.75-1.88-1.79-3.72-2.49-5.47-2.08-4.16.95-6.73,7.68-6.75,7.75l-.94-.35c.11-.3,2.78-7.3,7.46-8.38,2.1-.48,4.25.3,6.39,2.33,8,7.66,10.48,31.38,10.58,32.38Z" fill="#006b2c"/>
      <path id="elbdbgmhaqdna" d="M107.5,328.37s4.52-.91,5.39,3-7.52,16.31-7.52,16.31-7.62-1.47-7.62-11.49S106,326.14,107.5,328.37Z" fill="#006b2c"/>
      <g id="el9c0hp7rp5p">
        <path id="el5q731zzshz" d="M107.5,328.37s4.52-.91,5.39,3-7.52,16.31-7.52,16.31-7.62-1.47-7.62-11.49S106,326.14,107.5,328.37Z" fill="#fff" opacity="0.2"/>
      </g>
      <path id="eloabrz6pje9" d="M95.83,335.93s1.82-2-.57-2.49S81.84,335,83.45,346c0,0,13.24.11,14.18-4.33S95.83,335.93,95.83,335.93Z" fill="#006b2c"/>
      <g id="elxecnwx331fl">
        <path id="elo9fbtejtx6m" d="M95.83,335.93s1.82-2-.57-2.49S81.84,335,83.45,346c0,0,13.24.11,14.18-4.33S95.83,335.93,95.83,335.93Z" fill="#fff" opacity="0.2"/>
      </g>
      <path id="elu4kgnuiu75a" d="M112.83,317.08s-.51-2,1.27-1.48,8.55,5.86,3.49,12.72c0,0-9-4.7-8-8S112.83,317.08,112.83,317.08Z" fill="#006b2c"/>
      <g id="elh18vnh3hzgp">
        <path id="elqulhjq9zrpi" d="M112.83,317.08s-.51-2,1.27-1.48,8.55,5.86,3.49,12.72c0,0-9-4.7-8-8S112.83,317.08,112.83,317.08Z" fill="#fff" opacity="0.2"/>
      </g>
      <path id="el5dr6xasnzho" d="M279.18,371.82l-1-.27c.12-.41,11.66-41.48,32.53-52.54l.47.88C290.72,330.76,279.29,371.41,279.18,371.82Z" fill="#006b2c"/>
      <path id="ellt4cdx3j5x" d="M279.37,367.18l-.91-.42c.21-.43,20.12-43.95,13.26-57.77l.89-.44C299.69,322.79,280.2,365.38,279.37,367.18Z" fill="#006b2c"/>
      <path id="el42p0cqyk7g3" d="M278.59,370.33l-1-.29c.68-2.26,16.67-55.37,26.9-61.9l.54.84C295.15,315.31,278.75,369.78,278.59,370.33Z" fill="#006b2c"/>
      <path id="elqgpj8ypnh2" d="M295.32,310.7s3,.79,3.43-1-8.75-10.51-18-5.72c0,0,1.4,8.66,7.32,11S295.32,310.7,295.32,310.7Z" fill="#006b2c"/>
      <g id="el25td68py67v">
        <path id="elncr8hycwm" d="M295.32,310.7s3,.79,3.43-1-8.75-10.51-18-5.72c0,0,1.4,8.66,7.32,11S295.32,310.7,295.32,310.7Z" fill="#fff" opacity="0.2"/>
      </g>
      <path id="elfbpvsjlwyu" d="M302.29,308.51s-3.08.26-3.19-1.62,10.45-8.83,18.69-2.5c0,0-2.9,8.28-9.14,9.59S302.29,308.51,302.29,308.51Z" fill="#006b2c"/>
      <g id="elu4lgq66jq7">
        <path id="el5rc3b0xo60h" d="M302.29,308.51s-3.08.26-3.19-1.62,10.45-8.83,18.69-2.5c0,0-2.9,8.28-9.14,9.59S302.29,308.51,302.29,308.51Z" fill="#fff" opacity="0.2"/>
      </g>
      <path id="elirml8etpl6f" d="M312.06,316.82s-1.36-2.35,1.07-2.31,12.82,4.28,8.95,14.69c0,0-13-2.65-13-7.18S312.06,316.82,312.06,316.82Z" fill="#006b2c"/>
      <g id="eldoawgacnmnd">
        <path id="el4tf5tv27e2b" d="M312.06,316.82s-1.36-2.35,1.07-2.31,12.82,4.28,8.95,14.69c0,0-13-2.65-13-7.18S312.06,316.82,312.06,316.82Z" fill="#fff" opacity="0.2"/>
      </g>
      <path id="elagfbkg312y7" d="M302.41,322.7s.57-2,1.85-.64,4.47,9.34-3.33,12.76c0,0-5.45-8.56-2.95-11S302.41,322.7,302.41,322.7Z" fill="#006b2c"/>
      <g id="ele44rm32kk2">
        <path id="elvsuln3dkd3g" d="M302.41,322.7s.57-2,1.85-.64,4.47,9.34-3.33,12.76c0,0-5.45-8.56-2.95-11S302.41,322.7,302.41,322.7Z" fill="#fff" opacity="0.2"/>
      </g>
      <path id="elvhtl4mp9f5m" d="M91.93,323.38s1-1.84-.87-1.75-9.73,3.57-6.52,11.46c0,0,9.88-2.33,9.77-5.8S91.93,323.38,91.93,323.38Z" fill="#006b2c"/>
      <g id="eldji8knz8xd">
        <path id="el468arpa2f6l" d="M91.93,323.38s1-1.84-.87-1.75-9.73,3.57-6.52,11.46c0,0,9.88-2.33,9.77-5.8S91.93,323.38,91.93,323.38Z" fill="#fff" opacity="0.2"/>
      </g>
      <path id="elo1icr90l8" d="M267.68,391.53s-6.6-.26-7.25-13.57,11-16.86,19.91-15.23c0,0-1.31-9.48,4.49-9.13s5.4,6.68,5.4,6.68,2-13.44,9.89-13.45,0,15.9,0,15.9,10.95-3.88,15,0-5,8.42-5,8.42,14.19,3.41,8.26,14.27c0,0,9.89,1.14,12.66,6,0,0-.79-9.81,2.77-9.15s2.76,9.26,2.76,9.26,5.94-9.45,11.08-6.11-2.37,11.34-2.37,11.34,9.89-3.54,11.47,1.15-5.54,6.45-5.54,6.45,10.29-1.76,10.29,6.95c0,0,19.78-1.4,24.53,6.42H268.08Z" fill="#006b2c"/>
      <g id="elzlobayx2b7i">
        <path id="el5ywkp6toxzs" d="M267.68,391.53s-6.6-.26-7.25-13.57,11-16.86,19.91-15.23c0,0-1.31-9.48,4.49-9.13s5.4,6.68,5.4,6.68,2-13.44,9.89-13.45,0,15.9,0,15.9,10.95-3.88,15,0-5,8.42-5,8.42,14.19,3.41,8.26,14.27c0,0,9.89,1.14,12.66,6,0,0-.79-9.81,2.77-9.15s2.76,9.26,2.76,9.26,5.94-9.45,11.08-6.11-2.37,11.34-2.37,11.34,9.89-3.54,11.47,1.15-5.54,6.45-5.54,6.45,10.29-1.76,10.29,6.95c0,0,19.78-1.4,24.53,6.42H268.08Z" fill="#fff" opacity="0.4"/>
      </g>
      <path id="elp5tk8rp0wzj" d="M130.06,391.53s4.87-.26,5.35-13.57-8.09-16.86-14.69-15.23c0,0,1-9.48-3.31-9.13s-4,6.68-4,6.68-1.46-13.44-7.3-13.45,0,15.9,0,15.9-8.07-3.88-11,0,3.71,8.42,3.71,8.42-10.47,3.41-6.09,14.27c0,0-7.3,1.14-9.34,6,0,0,.58-9.81-2-9.15s-2,9.26-2,9.26-4.37-9.45-8.17-6.11,1.75,11.34,1.75,11.34-7.29-3.54-8.46,1.15,4.09,6.45,4.09,6.45-7.59-1.76-7.59,6.95c0,0-14.59-1.4-18.1,6.42h87Z" fill="#006b2c"/>
      <g id="elut566l897bp">
        <path id="elfe3otgcm8u4" d="M130.06,391.53s4.87-.26,5.35-13.57-8.09-16.86-14.69-15.23c0,0,1-9.48-3.31-9.13s-4,6.68-4,6.68-1.46-13.44-7.3-13.45,0,15.9,0,15.9-8.07-3.88-11,0,3.71,8.42,3.71,8.42-10.47,3.41-6.09,14.27c0,0-7.3,1.14-9.34,6,0,0,.58-9.81-2-9.15s-2,9.26-2,9.26-4.37-9.45-8.17-6.11,1.75,11.34,1.75,11.34-7.29-3.54-8.46,1.15,4.09,6.45,4.09,6.45-7.59-1.76-7.59,6.95c0,0-14.59-1.4-18.1,6.42h87Z" fill="#fff" opacity="0.4"/>
      </g>
      <path id="elw70p2xvc05" d="M86.64,415.51S106.8,402.44,103,400.24s-17.3,10.84-17.3,10.84,14.86-21.74,11.19-26.1S83.33,402.7,83.33,402.7s6.72-25.24,2-28S78.84,400,78.84,400,77,369.59,68.29,370s4,30,4,30S60,382.39,55.64,387.39s13.84,19,13.84,19S55.87,400,55,404.76s15,9.79,15,9.79-5.12,1.47-6.3,3.18H90.91S91.34,416.43,86.64,415.51Z" fill="#006b2c"/>
      <g id="el3j00gxpmrw5">
        <path id="eluvmn7zrokjn" d="M86.64,415.51S106.8,402.44,103,400.24s-17.3,10.84-17.3,10.84,14.86-21.74,11.19-26.1S83.33,402.7,83.33,402.7s6.72-25.24,2-28S78.84,400,78.84,400,77,369.59,68.29,370s4,30,4,30S60,382.39,55.64,387.39s13.84,19,13.84,19S55.87,400,55,404.76s15,9.79,15,9.79-5.12,1.47-6.3,3.18H90.91S91.34,416.43,86.64,415.51Z" fill="#fff" opacity="0.6"/>
      </g>
      <path id="elewt7la6476f" d="M96.73,417.73s23.2-85.37,27.42-88.53,28.29-12.07,28.29-12.07,58.55,9.78,67.35,8.81,37.08-6.41,41.14,0S281,370.87,281,370.87l22.49,9.49,14.25,37.37Z" fill="#5f5f5d"/>
      <g id="elz77cjtkon3p">
        <path id="elan7wy7x6dqa" d="M264.88,333.73l-8.73,8.64L233.4,337l-25.74,5.35,1.65,9.95-9.37,11.16,3.33-11.16L196,340.05s-29.62,1.8-37.35,0c-4.85-1.13-19.52-8.27-29.74-13.41,8.36-3.89,23.56-9.51,23.56-9.51s58.55,9.78,67.35,8.81,37.08-6.42,41.14,0C261.79,327.31,263.2,330.13,264.88,333.73Z" opacity="0.1"/>
      </g>
      <g id="elfdb484ogkuh">
        <path id="elwm57g24jg5g" d="M317.74,417.73h-221s23.09-85,27.39-88.52h0l-14.24,66.24,7.12,11,17.5-13.28L148,400.61l18.62-3.76,1.85-9,26.38-17.35-16.56,15.34,5.83,17.5,25.35,4.37h28L249,400l-3.86-15.7-5.83-9.1,29.55-.07-12.58,7.79,4.64,13.83,14.23,6.6,16.54-10.21,6.74,19.48Z" opacity="0.1"/>
      </g>
      <path id="elqvv4sbr762d" d="M288.2,417.73h36.63s-7.29-11.16-10.4-9.74c-4.05,1.84-7.05-8.27-11.53-5.88-1.58.85-.8,3.55-1.8,4.64-1.64,1.8-3.73,1.45-5.71,2.44C291.5,411.13,290.12,413.69,288.2,417.73Z" fill="#006b2c"/>
      <g id="elv4qp14rtqa">
        <path id="elasvjen0ewuo" d="M288.2,417.73h36.63s-7.29-11.16-10.4-9.74c-4.05,1.84-7.05-8.27-11.53-5.88-1.58.85-.8,3.55-1.8,4.64-1.64,1.8-3.73,1.45-5.71,2.44C291.5,411.13,290.12,413.69,288.2,417.73Z" opacity="0.2"/>
      </g>
      <path id="elmvytkej5lk9" d="M320.83,414.62s-2.41-13.95-.75-16,1.95,7.61,1.95,7.61,5.58-20.16,9.15-20.26S327,403.46,327,403.46s15.26-24.94,19.69-22.62-16,24.43-16,24.43,11.16-9.61,13.62-6.89-12.39,11-12.39,11,6.55-1.47,6.54.71S327.38,415.86,320.83,414.62Z" fill="#006b2c"/>
      <g id="els605jj4yxa">
        <path id="elgxmnoe9vhwr" d="M320.83,414.62s-2.41-13.95-.75-16,1.95,7.61,1.95,7.61,5.58-20.16,9.15-20.26S327,403.46,327,403.46s15.26-24.94,19.69-22.62-16,24.43-16,24.43,11.16-9.61,13.62-6.89-12.39,11-12.39,11,6.55-1.47,6.54.71S327.38,415.86,320.83,414.62Z" fill="#fff" opacity="0.2"/>
      </g>
      <path id="el5g4py76an3o" d="M318.63,412.63s-11.47-2.08-12.58-3.94,6.43.64,6.43.64-14-10-13.09-12.8,12.33,8.21,12.33,8.21-15-18.84-11.93-21.62,14.39,19.26,14.39,19.26-4.28-11.35-1.49-12.49,5,12.7,5,12.7.71-5.48,2.39-4.86S321.44,407.91,318.63,412.63Z" fill="#006b2c"/>
      <g id="elh86c1m1dd4l">
        <path id="eljdsibw0lsi9" d="M318.63,412.63s-11.47-2.08-12.58-3.94,6.43.64,6.43.64-14-10-13.09-12.8,12.33,8.21,12.33,8.21-15-18.84-11.93-21.62,14.39,19.26,14.39,19.26-4.28-11.35-1.49-12.49,5,12.7,5,12.7.71-5.48,2.39-4.86S321.44,407.91,318.63,412.63Z" fill="#fff" opacity="0.2"/>
      </g>
      <path id="el7obhzjj7c7t" d="M317.77,411.1s-11.08-11.09-10.88-14,6.62,5.64,6.62,5.64-7.81-21.81-4.64-24.18,7.32,18.54,7.32,18.54-2.1-32.32,3.4-33,1.12,32.3,1.12,32.3,4-15.81,7.94-14.93-4.2,17.87-4.2,17.87,5-5.51,6.37-3.53S324.49,408,317.77,411.1Z" fill="#006b2c"/>
      <g id="eluih6sii4e1p">
        <path id="elqvf561biyji" d="M317.77,411.1s-11.08-11.09-10.88-14,6.62,5.64,6.62,5.64-7.81-21.81-4.64-24.18,7.32,18.54,7.32,18.54-2.1-32.32,3.4-33,1.12,32.3,1.12,32.3,4-15.81,7.94-14.93-4.2,17.87-4.2,17.87,5-5.51,6.37-3.53S324.49,408,317.77,411.1Z" fill="#fff" opacity="0.1"/>
      </g>
      <path id="elv3z654bz8d" d="M304.34,417.73h29.19s-5.81-8.89-8.29-7.76c-3.22,1.47-5.61-6.59-9.18-4.68-1.26.67-.65,2.82-1.44,3.69-1.31,1.44-3,1.16-4.55,1.95C307,412.47,305.87,414.51,304.34,417.73Z" fill="#006b2c"/>
      <path id="elum2pwnwsa" d="M122,417.73H85.4s7.3-11.16,10.41-9.74c4,1.84,7-8.27,11.52-5.88,1.58.85.81,3.55,1.81,4.64,1.64,1.8,3.73,1.45,5.71,2.44C118.74,411.13,120.12,413.69,122,417.73Z" fill="#006b2c"/>
      <g id="ele5f1azt9xi">
        <path id="elnsu3dwd4hkj" d="M122,417.73H85.4s7.3-11.16,10.41-9.74c4,1.84,7-8.27,11.52-5.88,1.58.85.81,3.55,1.81,4.64,1.64,1.8,3.73,1.45,5.71,2.44C118.74,411.13,120.12,413.69,122,417.73Z" opacity="0.2"/>
      </g>
      <path id="el6fqw9isgltj" d="M89.41,414.62s2.4-13.95.74-16-2,7.61-2,7.61-5.53-20.16-9.1-20.23,4.24,17.49,4.24,17.49S68,378.52,63.59,380.84s16,24.43,16,24.43-11.17-9.61-13.63-6.89,12.4,11,12.4,11-6.55-1.47-6.54.71S82.85,415.86,89.41,414.62Z" fill="#006b2c"/>
      <g id="elhfi3a009rfk">
        <path id="el088juya07w83" d="M89.41,414.62s2.4-13.95.74-16-2,7.61-2,7.61-5.53-20.16-9.1-20.23,4.24,17.49,4.24,17.49S68,378.52,63.59,380.84s16,24.43,16,24.43-11.17-9.61-13.63-6.89,12.4,11,12.4,11-6.55-1.47-6.54.71S82.85,415.86,89.41,414.62Z" fill="#fff" opacity="0.2"/>
      </g>
      <path id="eldd32tnb2m3u" d="M100.65,415.28s8.73-7.73,8.72-9.9-5.17,3.89-5.17,3.89,6.8-15.83,4.56-17.73S102.47,405,102.47,405s3-23.88-1-24.67-2.32,23.92-2.32,23.92-2.23-11.92-5.2-11.44,2.29,13.45,2.29,13.45-3.45-4.32-4.57-2.91S95.81,412.69,100.65,415.28Z" fill="#006b2c"/>
      <g id="el25lnnzty24w">
        <path id="elfba066jg20q" d="M100.65,415.28s8.73-7.73,8.72-9.9-5.17,3.89-5.17,3.89,6.8-15.83,4.56-17.73S102.47,405,102.47,405s3-23.88-1-24.67-2.32,23.92-2.32,23.92-2.23-11.92-5.2-11.44,2.29,13.45,2.29,13.45-3.45-4.32-4.57-2.91S95.81,412.69,100.65,415.28Z" fill="#fff" opacity="0.2"/>
      </g>
      <path id="elw3f71yb1r2q" d="M105.9,417.73H76.7s5.82-8.89,8.3-7.76c3.22,1.47,5.61-6.59,9.18-4.68,1.26.67.64,2.82,1.43,3.69,1.31,1.44,3,1.16,4.56,1.95C103.27,412.47,104.37,414.51,105.9,417.73Z" fill="#006b2c"/>
    </g>
    <g id="freepik--Character--inject-2" transform="translate(2.623)" style="isolation: isolate">
      <g id="freepik--group--inject-2">
        <path id="eldx07n43abzm" d="M174.87,226s-33.62-5.24-40-2.49-8.53,12.64-8.53,12.64-1.15,2,2.33,2.26c0,0-14.23,35.45-9.73,42.24s49.82,9.51,56,6.18S195.79,228.53,174.87,226Z" fill="#263238"/>
        <path id="elxxcoz90vi2h" d="M194.67,259.82s4.45,10.33,5.45,11.77,23.15,11.62,23.15,11.62a19.55,19.55,0,0,1,5.41,0c2.73.43,6.49,1.58,6.83,2s-4.11,6.89-4.11,6.89-8.85.55-10-2.95c0,0-22.19-8.24-24.77-10.4s-9.76-14.92-9.76-14.92Z" fill="#e4897b"/>
        <path id="el099gur982hpj" d="M188.3,237.2c4.16,2.48,10.67,29.18,12.07,32.35s18.4,10.88,18.4,10.88l-7.54,7.22S194,280,191.86,277.86s-10.74-24.33-10.74-24.33Z" fill="#407bff"/>
        <path id="elxmcg7z2t1x8" d="M186.92,298.22s70.12-10.07,73.82,5.31c3.91,16.27-52.39,27.24-86,28.39s-43.33-6.24-37.93-47.82l45.4-.11Z" fill="#263238"/>
        <g id="elwci3zsbodin">
          <path id="Path_69" data-name="Path 69" d="M186.92,298.22s70.12-10.07,73.82,5.31c3.91,16.27-52.39,27.24-86,28.39s-43.33-6.24-37.93-47.82l45.4-.11Z" opacity="0.2"/>
        </g>
        <path id="elv109q87ct4" d="M250.25,322.06a.21.21,0,0,1-.25,0,.17.17,0,0,1-.06-.21c.11-.37,1.22-3.61,2.35-3.95a.7.7,0,0,1,.67.2,1.15,1.15,0,0,1,.4,1.09,3,3,0,0,1-1.05,1.52,12.241,12.241,0,0,1-2.06,1.35Zm.28-.62a4.82,4.82,0,0,0,2.4-2.31.73.73,0,0,0-.28-.74.25.25,0,0,0-.27-.08,1,1,0,0,0-.26.16A9.459,9.459,0,0,0,250.53,321.44Z" fill="#407bff"/>
        <path id="elwqgtka7q24n" d="M250.19,322.11a.2.2,0,0,1-.21-.06c-.11-.1-1.66-2.06-1.41-3.38a1.3,1.3,0,0,1,.54-.81.72.72,0,0,1,.9-.09c.81.58.71,3.2.31,4.2v.1Zm-.89-3.85a.86.86,0,0,0-.27.47c-.16.84.62,2.1,1,2.7.26-1.12.18-3-.3-3.29a.347.347,0,0,0-.39.06l-.08.06Z" fill="#407bff"/>
        <path id="elqfmexc33or" d="M225.96,330.3l14.7.01,7.05.01.84-7.43-6.52-.87-15.94-2.13Z" fill="#e4897b"/>
        <path id="elnbyw76ylnel" d="M247,322l-1.79,8.47a.85.85,0,0,0,.69,1l4.22.76s5.61,1.43,7.19.42c4.6-2.94,9-21.59,7.16-23-.68-.5-1.87.26-2.46.87-1.89,1.93-5.92,7.31-7.52,8.91-1.86,1.86-5.17,1.91-6.62,1.84a.85.85,0,0,0-.87.73Z" fill="#263238"/>
        <g id="elw6fz4je182">
          <path id="Path_70" data-name="Path 70" d="M225.96,330.3l14.7.01,1.37-8.29-15.94-2.13Z" opacity="0.2"/>
        </g>
        <path id="elpt7gfvrspur" d="M170.45,297.71v1.86a2.41,2.41,0,0,0,2.3,2.4h68.39a2.56,2.56,0,0,0,2.47-2.4v-1.86Z" fill="#263238"/>
        <g id="elujotr7c394">
          <path id="Path_71" data-name="Path 71" d="M170.45,297.71v1.86a2.41,2.41,0,0,0,2.3,2.4h68.39a2.56,2.56,0,0,0,2.47-2.4v-1.86Z" fill="#fff" opacity="0.2"/>
        </g>
        <g id="el1l8ryd3cbtw">
          <path id="Path_72" data-name="Path 72" d="M196,297.71v1.86a2.42,2.42,0,0,0,2.31,2.4h42.86a2.56,2.56,0,0,0,2.47-2.4v-1.86Z" fill="#fff" opacity="0.2"/>
        </g>
        <path id="elqaekv9unsp" d="M198.28,300.26h45.18a3.7,3.7,0,0,0,3.29-2.42l10.36-32.5a1.8,1.8,0,0,0-1.74-2.51H210.19a3.76,3.76,0,0,0-3.28,2.51L196.55,297.8a1.76,1.76,0,0,0,1.73,2.46Z" fill="#263238"/>
        <g id="eldl8dadq4fm5">
          <path id="Path_73" data-name="Path 73" d="M198.28,300.26h45.18a3.7,3.7,0,0,0,3.29-2.42l10.36-32.5a1.8,1.8,0,0,0-1.74-2.51H210.19a3.76,3.76,0,0,0-3.28,2.51L196.55,297.8a1.76,1.76,0,0,0,1.73,2.46Z" fill="#fff" opacity="0.2"/>
        </g>
        <g id="elca1j98cgui7">
          <path id="Path_74" data-name="Path 74" d="M200,300.26h43.48a3.7,3.7,0,0,0,3.29-2.42l10.36-32.5a1.8,1.8,0,0,0-1.74-2.51h-43.5a3.76,3.76,0,0,0-3.28,2.51L198.25,297.8a1.76,1.76,0,0,0,1.75,2.46Z" fill="#fff" opacity="0.2"/>
        </g>
        <g id="elqowiac7fxv">
          <path id="Path_75" data-name="Path 75" d="M226.42,283c-.56,2.16.52,3.92,2.41,3.92s3.86-1.76,4.42-3.92-.52-3.92-2.4-3.92S227,280.87,226.42,283Z" fill="#fff" opacity="0.2"/>
        </g>
        <g id="ellip5378komi">
          <path id="Path_76" data-name="Path 76" d="M247,322l-1.79,8.47a.85.85,0,0,0,.69,1l4.22.76s5.61,1.43,7.19.42c4.6-2.94,9-21.59,7.16-23-.68-.5-1.87.26-2.46.87-1.89,1.93-5.92,7.31-7.52,8.91-1.86,1.86-5.17,1.91-6.62,1.84a.85.85,0,0,0-.87.73Z" fill="#fff" opacity="0.2"/>
        </g>
        <path id="elu5xzcebbtoi" d="M150.26,289.99l-14.18.18.27-4.61,13.91-.3Z"/>
        <path id="el2y314yiuqu3" d="M178.24,284.65l4.24-.09,1.52,4.98-5.76.08Z"/>
        <path id="el0d8sws5m7ihg" d="M176.43,284.69v4.95l-23.99.32v-4.75Z"/>
        <path id="elc5iysmvqfer" d="M162.61,288.78l-.07-1.93a1.9,1.9,0,0,1,1.75-2l4.34-.18a1.77,1.77,0,0,1,1.31.51,2,2,0,0,1,.59,1.36l.07,1.92a1.91,1.91,0,0,1-1.76,2l-4.33.18h-.08A1.89,1.89,0,0,1,162.61,288.78Zm6.2.87a1.11,1.11,0,0,0,1-1.18l-.07-1.92a1.2,1.2,0,0,0-.35-.79,1,1,0,0,0-.76-.3l-4.34.18a1.1,1.1,0,0,0-1,1.18l.07,1.93a1.09,1.09,0,0,0,1.11,1.09Z" fill="#fff"/>
        <path id="elr75s6m6nwl" d="M163.35,288.15h2.18a.51.51,0,0,0,.5-.5.5.5,0,0,0-.5-.5h-2.18a.5.5,0,0,0-.5.5.51.51,0,0,0,.5.5Z" fill="#fff"/>
        <path id="elfmbhjuvwnj4" d="M188.3,237.2s-5.47,34.59-3.18,47l-50.59,1.47s6-35.73,13.95-49.21C148.48,236.42,161.69,214.36,188.3,237.2Z" fill="#407bff"/>
        <g id="elpai54rwscg">
          <path id="Path_77" data-name="Path 77" d="M188.3,237.2s-5.47,34.59-3.18,47l-50.59,1.47s6-35.73,13.95-49.21C148.48,236.42,161.69,214.36,188.3,237.2Z" fill="#fff" opacity="0.6"/>
        </g>
        <path id="el1pjhbi8acveh" d="M158.62,229.5s8.39,8.2,13.24,6.86,6.67-3.81,6.67-3.81-3.9-1.71-3.47-2.64c.05-.1.17-.29.34-.57,1.45-2.2,6.59-9.22,6.59-9.22l-11-6.19s-.9,2.13-2,4.67c-1.49,3.38-3.35,7.47-4,8.23C163.85,228.17,158.62,229.5,158.62,229.5Z" fill="#e4897b"/>
        <g id="elgqzlk9isvi">
          <path id="Path_78" data-name="Path 78" d="M168.94,218.6c.69,3.9,2.39,8.49,6.46,10.74,1.45-2.2,6.59-9.22,6.59-9.22l-11-6.19S170.05,216.06,168.94,218.6Z" opacity="0.2"/>
        </g>
        <path id="elu7ez1jb23l" d="M166.73,211a19.13,19.13,0,0,0-.89,6c.21,2.48-2.55,3.31-2.9,1.81,0,0,.05,3.65,2.42,3.1,0,0,0,2.53,2.12,2.57a14,14,0,0,0,2.66-8.57C169.81,211.1,166.73,211,166.73,211Z" fill="#263238"/>
        <path id="elv0hoaymx1t" d="M185.74,198.84c-3.6,1.49-3,9.85,3,17,3.67-3.16,5.34-10.46,4.47-13.34C191.81,197.89,188.87,197.55,185.74,198.84Z" fill="#263238"/>
        <path id="elrc7yov7uh2a" d="M191,219.19h0a25.1,25.1,0,0,1-1.14,2.8c-3.55,7.23-13.76,8.64-18.28,1.49l-.05-.07c-3-4.82-1.87-9.31-.62-17.1a10.77,10.77,0,0,1,16.81-7.22C193.61,203.24,193.26,212.54,191,219.19Z" fill="#e4897b"/>
        <path id="elmdsb7ulcdlp" d="M181.88,211c-.14.63.08,1.21.48,1.3s.85-.34,1-1-.07-1.21-.48-1.3S182.06,210.42,181.88,211Z" fill="#263238"/>
        <path id="elkvis2sr3j8" d="M189,212.63c-.14.62.08,1.2.49,1.29s.85-.33,1-1-.08-1.21-.49-1.3S189.12,212,189,212.63Z" fill="#263238"/>
        <path id="eltnuqa5iqyj" d="M186.59,212.4a23.06,23.06,0,0,0,1.79,6,3.67,3.67,0,0,1-3.11-.12Z" fill="#de5753"/>
        <path id="el56w7v73swya" d="M180.44,208.35a.41.41,0,0,1-.22-.1.39.39,0,0,1,0-.54,3.71,3.71,0,0,1,3.33-.84.36.36,0,0,1,.26.44h0a.39.39,0,0,1-.47.26h0a2.94,2.94,0,0,0-2.62.69.38.38,0,0,1-.28.09Z" fill="#263238"/>
        <path id="elkj5p4kb0q8n" d="M192.75,211a.42.42,0,0,1-.29-.29,3,3,0,0,0-1.69-2.12.376.376,0,1,1,.25-.71,3.73,3.73,0,0,1,2.17,2.66.37.37,0,0,1-.27.45h0a.42.42,0,0,1-.17.01Z" fill="#263238"/>
        <path id="elv1jy1ka3sd" d="M183.79,222.12h0a5.74,5.74,0,0,1-4.8-3.66.28.28,0,0,1,.19-.34.29.29,0,0,1,.35.19c0,.11.82,2.65,4.35,3.26a.29.29,0,0,1,.23.32.28.28,0,0,1-.32.23Z" fill="#263238"/>
        <path id="els5ec7v6kic8" d="M192.51,205.07s2.32-1.78,2.23-3.86a7.65,7.65,0,0,0-4.08-6.31,14.87,14.87,0,0,0-7.27-2c-8.86-.52-13.68,2.14-15.2,6.87-.94,1.68-.92,4.8-.08,7.72a.09.09,0,0,1,0,.05h0a12.84,12.84,0,0,0,2.31,4.58c5.4-4.68,7.41-8,6.56-10.2.18-.05,2.86-2.45,4.05-2.51,1.72-.09,4.89,1.54,7.46,3.07,1.41.83,2.86-.5,2.86-.5Z" fill="#263238"/>
        <path id="elb0sqok3ryfi" d="M165.85,211.67a7.48,7.48,0,0,0,2.49,5.16c2,1.72,4.1.22,4.49-2.23.36-2.21-.24-5.78-2.68-6.56S165.71,209.24,165.85,211.67Z" fill="#e4897b"/>
        <path id="elxyewbvvyx7d" d="M165.84,216.93s3.28-12.75,11.39-17.5S193.75,198,193.75,198a25.518,25.518,0,0,0-.55-3.8c-.24-.4-4.26-1.78-4.26-1.78s-2.29-3.37-5.47-4.45-12.68-1.39-16,1.38-5.51,8.41-4.11,8.51,2.47.1,2.47.1-2.62,9.05-1.5,10.41C164.34,208.36,162.4,214.66,165.84,216.93Z" fill="#9e0000"/>
        <path id="el3w5advh1z6s" d="M182.11,333.74a.25.25,0,0,1,.23-.1.16.16,0,0,1,.14.16c.08.38.6,3.76-.24,4.59a.71.71,0,0,1-.68.14,1.14,1.14,0,0,1-.86-.78,3,3,0,0,1,.22-1.83,12.129,12.129,0,0,1,1.19-2.18Zm0,.69a4.8,4.8,0,0,0-1,3.16.72.72,0,0,0,.59.52.24.24,0,0,0,.27-.05.71.71,0,0,0,.16-.26,9.311,9.311,0,0,0,.01-3.37Z" fill="#407bff"/>
        <path id="elmqe8qbgh84k" d="M204.49,317.19l-13.94,4.63-6.7,2.23,1.55,7.31,6.47-1.23,15.79-3.02Z" fill="#e4897b"/>
        <path id="elwzggehvgfp" d="M187.21,331.74l-1-8.6a.86.86,0,0,0-1-.76L181,323s-5.77.42-6.95,1.87c-3.44,4.25-1.75,23.34.47,24.06.81.26,1.69-.84,2.06-1.6,1.18-2.43,3.31-8.81,4.31-10.83,1.18-2.35,4.3-3.45,5.7-3.84A.85.85,0,0,0,187.21,331.74Z" fill="#263238"/>
        <path id="el8a5gi781ink" d="M182.14,333.68a.18.18,0,0,1,.22,0c.13,0,2.42,1,2.81,2.33a1.22,1.22,0,0,1-.1,1,.72.72,0,0,1-.75.49c-1-.13-2.12-2.5-2.23-3.56v-.11a.18.18,0,0,1,.05-.15Zm2.58,3a.83.83,0,0,0,0-.54c-.24-.82-1.52-1.57-2.17-1.9.29,1.11,1.22,2.7,1.8,2.77.06,0,.18,0,.31-.24l.05-.09Z" fill="#407bff"/>
        <g id="el5qy7p6gick">
          <path id="Path_79" data-name="Path 79" d="M204.49,317.19l-13.94,4.63,1.32,8.31,15.79-3.02Z" opacity="0.2"/>
        </g>
        <path id="elkj2x8lulm3" d="M194.29,331.42l3.98.37-2.38-13.75-4.57,2.4Z" fill="#407bff"/>
        <g id="elu8ide4oa7ps">
          <path id="Path_80" data-name="Path 80" d="M194.29,331.42l3.98.37-2.38-13.75-4.57,2.4Z" fill="#fff" opacity="0.6"/>
        </g>
        <g id="el17jawdjfccm">
          <path id="Path_81" data-name="Path 81" d="M187.21,331.74l-1-8.6a.86.86,0,0,0-1-.76L181,323s-5.77.42-6.95,1.87c-3.44,4.25-1.75,23.34.47,24.06.81.26,1.69-.84,2.06-1.6,1.18-2.43,3.31-8.81,4.31-10.83,1.18-2.35,4.3-3.45,5.7-3.84A.85.85,0,0,0,187.21,331.74Z" fill="#fff" opacity="0.2"/>
        </g>
        <path id="el5sua2845asm" d="M239.32,320.94s-65.24-25.34-85.21-21.11-20.08,14.69-10,24.44,25.26,6,25.26,6-11.89-7.12-11.06-11.52,8.39,5.66,8.39,5.66,39.42,9.64,72,7.1Z" fill="#263238"/>
        <path id="elc22zsw8k94h" d="M240.11,319.88l-3.66-1.68-2.11,13.73,5.1-.83Z" fill="#407bff"/>
        <g id="elezmjsyxjyle">
          <path id="Path_82" data-name="Path 82" d="M240.11,319.88l-3.66-1.68-2.11,13.73,5.1-.83Z" fill="#fff" opacity="0.6"/>
        </g>
        <path id="elng9e00bboh" d="M154.48,226.84s8.83,24,8.37,29.39S144.2,302,144.2,302l-15,6S132.29,248.69,154.48,226.84Z" fill="#407bff"/>
        <g id="els0ao2beurjc">
          <path id="Path_83" data-name="Path 83" d="M154.48,226.84s8.83,24,8.37,29.39S144.2,302,144.2,302l-15,6S132.29,248.69,154.48,226.84Z" opacity="0.2"/>
        </g>
        <path id="elnibng7z0pkn" d="M186.35,296.51s-4.72-11.19-6.23-17.39,3.77-38.05.93-48.74l7.25,6.82L185.23,277Z" fill="#407bff"/>
        <g id="elv4v3jo7rjth">
          <path id="Path_84" data-name="Path 84" d="M186.35,296.51s-4.72-11.19-6.23-17.39,3.77-38.05.93-48.74l7.25,6.82L185.23,277Z" opacity="0.2"/>
        </g>
        <path id="elurls55io548" d="M132.82,279.12s31.29,6,26.34-51.16l-5.09-.44s3.1,21.72-2.61,35.93S132.29,277,132.29,277Z" fill="#263238"/>
        <path id="elnnsaf0dvurj" d="M162.67,253.72l-10.5-24.38L149,233.53s-.56-5.91,1.28-7.63,7,.43,9,.94S162.67,253.72,162.67,253.72Z" fill="#407bff"/>
        <path id="elkf6t0vw83h" d="M179.22,230.76s4.05,12,3.39,30.78,2.72,17.22,2.72,17.22l.48-1.77s-1.89-.22-1.74-6.55,1-31.88-1.46-38.59Z" fill="#263238"/>
        <path id="eld1zq2wgfzw8" d="M181.34,253s1-18-4.06-23.27c0,0,3.79-1.42,5.33,0s1.92,15.13-1.1,24" fill="#407bff"/>
        <path id="elwrvjhjim31" d="M155.93,260.36s4.58,10.63,5.61,12.11,23.82,12,23.82,12a20.251,20.251,0,0,1,5.57,0c2.81.44,6.68,1.62,7,2.07s-4.23,7.09-4.23,7.09-9.11.56-10.24-3c0,0-22.84-8.48-25.49-10.7S148,264.49,148,264.49Z" fill="#e4897b"/>
        <path id="elem9umss6got" d="M150.26,236.51c4.88,0,11.73,29.79,13,33.83S184.77,283,184.77,283l-6.43,7.61s-21.88-7.9-24.45-11.53-10.36-24.3-10.72-29.08S147,236.5,150.26,236.51Z" fill="#407bff"/>
      </g>
    </g>
    <a href="https://dilkhush.vercel.app" target="_blank">
    <g transform="matrix(1, 0, 0, 1, -25.48, 103.87)" filter="url(#dilkhush-raj)">
      <text id="dilkhush-raj-2" data-name="dilkhush-raj" transform="translate(160.48 262.13)" fill="#fdfdfd" font-size="18" font-family="Consolas-Bold, Consolas" font-weight="700"><tspan x="0" y="17">dilkhush-raj</tspan></text>
    </g>
    </a>
  </g>
</svg>
