<svg xmlns="http://www.w3.org/2000/svg"  viewBox="0 0 48 48" width="50px" height="50px"><circle cx="24" cy="24" r="20" fill="#3dd9eb"/><rect width="5" height="17" x="12" y="18" fill="#c2ffff"/><path fill="#c2ffff" d="M14.485,16h-0.028C12.965,16,12,14.888,12,13.499C12,12.08,12.995,11,14.514,11	c1.521,0,2.458,1.08,2.486,2.499C17,14.887,16.035,16,14.485,16z"/><path fill="#c2ffff" d="M36,35l-0.001-9.726c0-5.024-2.683-7.274-6.261-7.274c-1.652,0-3.352,0.594-4.738,1.938V18h-5v17h5	V24.187l0.002,0.001c0.394-0.978,1.305-1.985,2.806-1.985c1.967,0,3.192,1.5,3.192,3.698V35H36z"/></svg>